<svg width="396" height="251" viewBox="0 0 396 251" fill="none" xmlns="http://www.w3.org/2000/svg">
<path d="M54.8827 29.5821L63.3372 3.44226L72.0783 29.4745L99.5196 29.4387L77.4877 45.8254L85.978 71.9294L63.6238 56.0088L41.4486 72.1804L49.6524 45.9688L27.4414 29.8331L54.8827 29.5821Z" fill="#FFAF00"/>
<path d="M252.381 158.991C252.345 159.098 252.274 159.17 252.238 159.277C243.747 174.732 251.235 195.206 251.235 199.975C251.235 205.21 249.014 202.198 249.014 202.198C239.305 199.975 236.69 202.557 236.69 202.557C227.734 206.286 231.46 212.274 231.46 212.274H273.983C273.983 212.274 275.488 210.051 274.735 205.569C273.983 201.087 275.488 199.581 281.434 198.111C284.659 197.322 295.477 180.577 305.007 170.286L252.381 158.919V158.991Z" fill="#676767"/>
<path d="M362.397 177.565C356.414 170.608 355.59 161.321 354.946 139.735C354.874 137.548 354.551 135.217 354.05 132.779L307.693 170.142C311.204 175.126 313.604 186.995 316.972 188.071C318.369 188.86 320.053 189.505 322.095 189.899C334.024 192.23 351.578 198.003 347.1 200.334C342.622 202.665 339.255 196.103 331.803 202.27C324.352 208.438 326.573 212.31 326.573 212.31H360.14C360.14 212.31 364.618 196.103 367.591 190.688C370.601 185.274 368.38 184.485 362.397 177.565Z" fill="#676767"/>
<path d="M126.495 144.504L127.211 144.863C127.247 144.791 127.319 144.755 127.355 144.684C127.355 144.719 127.032 144.612 126.495 144.504Z" fill="#989898"/>
<path d="M120.62 173.835C106.434 189.505 107.938 196.999 104.965 200.728C101.991 204.457 96.0087 200.728 91.5307 200.728C87.0527 200.728 83.327 205.21 80.3536 208.94C77.3802 212.669 84.8316 211.916 84.8316 211.916H121.408C124.381 208.187 129.612 200.728 143.046 194.74C153.184 190.222 166.26 177.672 173.675 169.855L127.212 144.863C122.089 150.421 120.62 173.835 120.62 173.835Z" fill="#989898"/>
<path d="M178.942 173.8C181.915 176.668 187.719 182.154 193.02 186.206C200.472 191.943 199.72 193.557 199.003 197.68C198.251 201.768 193.02 198.505 187.074 200.155C181.091 201.804 180.375 209.155 180.375 209.155H208.747C208.747 209.155 219.924 196.067 222.934 188.68C225.334 182.728 218.456 169.784 215.769 165.05C215.196 163.939 214.766 162.756 214.443 161.501L175.252 170.895C176.72 172.186 178.082 173.262 178.942 173.8Z" fill="#676767"/>
<path d="M354.05 132.779C352.76 126.898 350.324 120.695 348.032 115.926C345.703 111.121 343.518 107.787 342.73 107.822C342.73 107.822 342.765 107.32 342.837 106.603L306.583 168.851C306.977 169.21 307.335 169.64 307.694 170.142L354.05 132.779Z" fill="#4E4E4E"/>
<path d="M343.016 100.041C342.909 98.2485 340.473 92.619 336.066 90.2883C328.579 86.344 337.427 95.0214 326.215 82.328C315.037 69.6345 291.143 61.4233 262.054 58.4113C250.733 57.2638 239.771 57.5507 230.027 58.3754L249.193 156.194C250.196 156.588 250.912 157.09 251.485 157.664L342.98 103.34C343.052 102.157 343.088 100.938 343.016 100.041Z" fill="#818181"/>
<path d="M251.485 157.664C251.844 158.022 252.166 158.417 252.381 158.811V158.847L305.007 170.214C305.508 169.676 305.974 169.174 306.44 168.672C306.476 168.708 306.511 168.744 306.547 168.78L342.801 106.46C342.873 105.635 342.944 104.452 342.98 103.269L251.485 157.664Z" fill="#989898"/>
<path d="M87.769 90.0014C87.769 88.9974 87.2675 87.9934 85.942 86.8102C79.9594 81.575 77.7383 84.587 75.4814 85.3042C73.2603 86.0572 72.508 92.7624 72.508 92.7624C72.508 92.7624 68.7822 89.0333 64.3042 90.5393C59.8262 92.0453 58.3216 97.2446 59.0739 100.257C59.8262 103.233 46.3922 113.703 45.6399 119.691C44.8875 125.679 46.3922 126.396 44.8875 129.408C43.3829 132.42 27.7278 148.09 27.7278 148.09C27.7278 148.09 41.1618 163.042 48.6133 163.042C56.0647 163.042 77.7025 159.313 77.7025 159.313C77.7025 159.313 91.8888 164.548 97.8356 160.066C100.307 158.202 104.176 154.437 107.078 149.704C109.693 148.162 112.201 146.62 114.243 145.114C119.402 143.393 124.31 144.11 126.316 144.504L89.8827 87.599C88.5572 89.0333 87.769 90.0014 87.769 90.0014Z" fill="#989898"/>
<path d="M139.249 107.536L126.495 144.504C127.032 144.612 127.355 144.719 127.355 144.719C127.319 144.755 127.247 144.827 127.212 144.899L173.675 169.891C173.711 169.855 173.747 169.819 173.783 169.784L183.169 127.293L139.249 107.536Z" fill="#CCCCCC"/>
<path d="M183.133 127.221L197.498 62.1404C197.391 62.1404 197.248 62.1404 197.14 62.1404C188.184 62.1404 177.007 52.4232 162.068 50.2C161.065 50.0566 160.062 49.9849 159.095 49.9849L139.248 107.5L183.133 127.221Z" fill="#B4B4B4"/>
<path d="M183.133 127.221L173.747 169.712C174.213 170.106 174.678 170.501 175.144 170.859L214.336 161.465C214.228 161.034 214.121 160.604 214.013 160.138C226.48 162.863 237.98 161.752 243.712 158.883C245.18 158.166 246.506 157.234 247.724 156.23L183.133 127.221Z" fill="#B4B4B4"/>
<path d="M247.796 156.265C247.939 156.158 248.118 156.05 248.261 155.907C248.62 156.014 248.906 156.122 249.229 156.23L230.063 58.4113C215.124 59.6663 203.159 62.0687 197.534 62.1763L183.169 127.257L247.796 156.265Z" fill="#989898"/>
<path d="M159.059 49.9849C145.41 49.949 133.373 63.2879 118.757 68.8816C114.96 70.3517 111.413 72.1804 108.189 74.296C104.212 73.0769 96.0446 80.9654 91.3158 86.0213L139.213 107.536L159.059 49.9849Z" fill="#818181"/>
<path d="M91.3516 86.0213C90.8142 86.595 90.3127 87.1329 89.8828 87.599L126.388 144.468C126.423 144.468 126.495 144.468 126.531 144.504L139.284 107.536L91.3516 86.0213Z" fill="#676767"/>
<path d="M217.417 230.597C288.456 230.597 351.542 236.98 391.343 246.876C361.752 234.291 306.69 217.904 220.569 217.904C126.029 217.904 68.7823 235.187 39.4424 247.916C78.9564 237.446 143.941 230.597 217.417 230.597Z" fill="white"/>
</svg>
