<svg width="70" height="70" viewBox="0 0 70 70" fill="none" xmlns="http://www.w3.org/2000/svg">
<g id="odi-circle_logomark-blue 2" clip-path="url(#clip0_142_900)">
<path id="Vector" d="M35 70C54.33 70 70 54.33 70 35C70 15.67 54.33 0 35 0C15.67 0 0 15.67 0 35C0 54.33 15.67 70 35 70Z" fill="#00315F"/>
<path id="Vector_2" d="M52.8654 46.6425V46.2742L52.6073 45.9916L52.4358 45.4701L51.7261 44.8613V44.1665L44.4548 37.9586C44.4481 37.9753 44.4413 37.9923 44.433 38.0122L41.598 35.5921L32.0329 27.4245L31.6881 13.476H17.2705L17.1406 13.5516C17.1406 13.5516 17.2372 13.7585 17.2705 13.8443C17.3022 13.9318 17.3788 14.1925 17.1739 14.3775C16.969 14.5625 17.0556 14.7038 17.0556 14.7038C17.0556 14.7038 17.2822 14.8669 17.4321 14.9426C17.582 15.0183 17.7436 15.8442 17.7436 16.083C17.7436 16.3218 17.5504 16.9845 17.4421 17.3646C17.3338 17.7447 17.4521 18.0374 17.5387 18.2005C17.6253 18.3637 17.0656 19.4065 17.0656 19.4065C17.0656 19.4065 16.326 20.71 16.496 20.9387C16.6658 21.1675 16.6359 21.7646 16.6359 21.7646L17.5621 22.6123V22.9167C17.5621 22.9167 18.4449 23.8519 18.4016 23.9276C18.3583 24.0033 18.4666 24.4389 18.5515 24.5903C18.6382 24.7417 18.4549 25.5137 18.4549 25.5137V26.1764C18.4549 26.1764 18.6482 26.8828 18.7998 27.0998C18.9497 27.3167 18.7348 27.8381 18.7348 27.8381C18.7348 27.8381 18.6915 27.9895 18.7348 28.0551C18.7781 28.1207 19.8109 29.4023 19.9724 29.5116C20.134 29.621 20.9952 30.5645 20.9952 30.5645V30.9228L21.2418 31.0422L21.4683 31.4761L21.4783 31.5367C22.2212 32.016 21.495 31.6326 21.5099 31.725C21.5533 31.974 21.2401 32.1152 21.2401 32.1152V32.4299L21.4766 32.4196C21.4766 32.4196 21.6915 32.2026 21.9714 32.4736C22.2513 32.7459 22.6061 32.8538 22.6061 32.8538C22.6061 32.8538 22.811 33.2237 23.0358 33.2876C23.2624 33.3531 23.1108 34.2547 23.1108 34.2547V34.6786L23.3673 35.0588C23.3673 35.0588 23.4456 35.1243 23.3907 35.4303C23.3374 35.7382 23.3907 36.0895 23.3907 36.0895L24.0903 36.8717L24.65 37.3376C24.65 37.3376 24.7466 37.4368 25.2097 37.3495C25.6728 37.2618 25.6295 37.6757 25.6295 37.6757L25.7477 38.229L25.5212 38.7826C25.5212 38.7826 25.6078 38.4782 25.2413 38.685C24.8765 38.8917 25.2946 39.6081 25.2946 39.6081V40.1617C25.2946 40.1617 25.6395 40.7586 25.876 40.7384C26.1125 40.7166 26.5756 41.6722 26.5756 41.6722L26.8555 41.7377L26.9304 42.227L27.0704 42.3365C27.0704 42.3365 27.4252 42.5751 27.4785 42.8259C27.5318 43.0747 27.2636 43.216 27.8017 43.3473C28.3397 43.4783 28.0715 43.2934 28.1681 43.5422C28.2648 43.793 28.7811 44.2268 28.7811 44.2268L29.1576 44.9432C29.1043 45.019 29.1576 45.3671 29.1576 45.3671L29.4808 45.5944L30.0188 45.6699C30.0188 45.6699 30.0938 45.7893 30.0938 45.9643C30.0938 46.1374 29.9638 46.5612 29.9638 46.7902C29.9638 47.0188 30.5235 46.9315 30.2437 47.0188C29.9638 47.1065 30.1121 47.4966 30.1121 47.4966C30.1121 47.4966 30.3303 47.4089 30.1787 47.9522C30.0288 48.4956 30.1787 48.4082 30.1787 48.4082C30.1787 48.4082 30.5019 48.3645 30.6085 48.6908C30.7168 49.017 31.0383 48.9515 31.0383 48.9515C31.0383 48.9515 31.4047 48.8857 31.8995 48.8202C32.3943 48.7547 33.0622 49.0154 33.0622 49.0154C33.0622 49.0154 34.3748 49.1667 34.483 49.1667C34.5646 49.1667 34.8863 49.1667 35.1195 49.3702C35.1211 49.4155 35.1243 49.4611 35.1262 49.5064C35.3744 49.6393 35.6541 49.7841 35.7125 49.7841C35.8207 49.7841 35.561 50.1104 36.3788 49.8933C37.1967 49.6762 37.3267 49.8278 37.3267 49.8278C37.3267 49.8278 37.8215 50.566 37.713 50.7192C37.6048 50.8723 37.6481 51.0875 37.7563 51.0875C37.8645 51.0875 38.0145 51.3045 38.2511 51.3264C38.4878 51.3482 38.4878 50.9362 38.4878 50.9362C38.4878 50.9362 38.6175 50.7192 38.9393 51.0017C39.2623 51.2843 39.7571 51.6089 39.7571 51.6089C39.7571 51.6089 40.0368 52.0447 40.7031 52.3035C41.3713 52.5642 42.3173 54.4985 42.209 54.9105C42.1008 55.3228 42.2957 55.3228 42.2957 55.3228C42.2957 55.3228 42.209 55.5395 42.5539 55.7145C42.8988 55.8879 42.6621 56.7793 42.9636 56.4528C43.2651 56.1265 52.0004 55.5633 52.84 54.7374C53.6797 53.9116 52.8185 53.042 52.755 53.1949C52.6901 53.3464 52.0023 53.4119 52.2171 53.0218C52.4319 52.6317 52.2605 52.3272 52.2605 52.3272C52.2605 52.3272 52.0238 51.7621 52.1523 51.7621C52.282 51.7621 52.4319 51.3935 52.4968 51.2188C52.562 51.0454 52.5819 50.741 52.5819 50.741C52.5819 50.741 52.6034 50.0885 52.7533 50.1322C52.9033 50.1759 52.0871 49.7421 52.6236 49.0893C53.1615 48.4368 52.3436 48.6555 52.9033 48.3947C53.463 48.134 53.7645 47.6562 53.8929 47.3736C54.0278 47.0978 52.8651 46.6422 52.8651 46.6422L52.8654 46.6425Z" fill="white"/>
</g>
<defs>
<clipPath id="clip0_142_900">
<rect width="70" height="70" fill="white"/>
</clipPath>
</defs>
</svg>
